<svg xmlns="http://www.w3.org/2000/svg" xmlns:xlink="http://www.w3.org/1999/xlink" version="1.1" x="0px" y="0px" viewBox="0 0 100 125" enable-background="new 0 0 100 100" xml:space="preserve"><path d="M47.4,38.9l0-1c-0.1-2,0.6-4.1,2.3-6.2c1.3-1.5,2.3-2.8,2.3-4.1c0-1.4-0.9-2.3-2.9-2.4c-1.3,0-2.9,0.5-3.9,1.2L43.8,22  c1.4-0.8,3.8-1.6,6.6-1.6c5.3,0,7.6,2.9,7.6,6.2c0,3-1.9,5-3.4,6.7c-1.5,1.6-2.1,3.2-2,5v0.7H47.4z"/><path d="M46.4,45.4c0-2.1,1.5-3.6,3.5-3.6c2.1,0,3.5,1.5,3.6,3.6c0,2.1-1.4,3.6-3.6,3.6C47.8,49.1,46.4,47.5,46.4,45.4z"/><path d="M82.5,30.1v6l2.5,1.6v4.6L50,65L15,42.3v-4.6l2.5-1.6v-6L10,35v56h80V35L82.5,30.1z M85,83.1L60.8,64L85,48.2V83.1z   M56.4,66.8L80.6,86H19l24.4-19.3L50,71L56.4,66.8z M39,63.8l-24,19V48.2L39,63.8z"/><polygon points="27.5,44.4 27.5,13.5 72.5,13.5 72.5,44.4 77.5,41.1 77.5,8.5 22.5,8.5 22.5,41.1 "/>
</svg>
